<?xml version="1.0" encoding="UTF-8" standalone="no"?>
<!-- Created with Inkscape (http://www.inkscape.org/) -->

<svg
   width="50"
   height="50"
   viewBox="0 0 13.229166 13.229167"
   version="1.1"
   id="svg3336"
   inkscape:version="1.2 (1:1.2.1+202207142221+cd75a1ee6d)"
   sodipodi:docname="ticket-00"
   inkscape:dataloss="true"
   inkscape:export-filename="ticket-00.png"
   inkscape:export-xdpi="96"
   inkscape:export-ydpi="96"
   xmlns:inkscape="http://www.inkscape.org/namespaces/inkscape"
   xmlns:sodipodi="http://sodipodi.sourceforge.net/DTD/sodipodi-0.dtd"
   xmlns="http://www.w3.org/2000/svg"
   xmlns:svg="http://www.w3.org/2000/svg">
  <sodipodi:namedview
     id="namedview3338"
     pagecolor="#ffffff"
     bordercolor="#000000"
     borderopacity="0.25"
     inkscape:showpageshadow="2"
     inkscape:pageopacity="0.0"
     inkscape:pagecheckerboard="0"
     inkscape:deskcolor="#d1d1d1"
     inkscape:document-units="px"
     showgrid="false"
     inkscape:zoom="4.797533"
     inkscape:cx="44.189378"
     inkscape:cy="24.908635"
     inkscape:window-width="1360"
     inkscape:window-height="704"
     inkscape:window-x="0"
     inkscape:window-y="0"
     inkscape:window-maximized="1"
     inkscape:current-layer="layer1" />
  <defs
     id="defs3333" />
  <g
     inkscape:label="Capa 1"
     inkscape:groupmode="layer"
     id="layer1">
    <g
       id="g3695"
       transform="matrix(0.82764767,0,0,0.82764767,0.57424113,0.27709712)">
      <g
         id="g91889"
         transform="matrix(0.80441467,0,0,0.80441467,-143.63259,-174.14915)">
        <path
           id="path91853"
           style="fill:#00efd1;fill-opacity:1;stroke:#083763;stroke-width:0.4;stroke-dasharray:none;stroke-opacity:0.929412"
           d="m 181.97028,217.90081 v 13.6276 h 1.26711 a 3.9282424,3.733757 0 0 1 3.54087,-2.11667 3.9282424,3.733757 0 0 1 3.54035,2.11667 h 1.26762 v -13.6276 h -1.09399 a 3.9282424,3.733757 0 0 1 -3.50108,2.04484 3.9282424,3.733757 0 0 1 -3.50108,-2.04484 z" />
        <path
           id="path91855"
           style="display:inline;opacity:0.99;mix-blend-mode:normal;fill:#07446b;fill-opacity:1;stroke:none;stroke-width:0.511039;stroke-miterlimit:4;stroke-dasharray:none;stroke-opacity:0.984314;paint-order:stroke fill markers;filter:url(#filter989);stop-color:#000000"
           d="m 185.11778,221.61401 c 0,0 -0.16865,0.04 -0.16452,0.24912 0.004,0.20931 0.15484,0.21968 0.15484,0.21968 l 0.27326,0.006 0.27325,0.006 0.27324,0.006 0.27324,0.006 -0.004,0.22233 -0.004,0.22234 -0.004,0.22234 -0.004,0.22232 -0.004,0.22234 -0.004,0.22233 -0.004,0.22234 -0.004,0.22233 -0.004,0.22232 -0.004,0.22234 -0.004,0.22234 -0.004,0.22234 -0.004,0.22233 -0.004,0.22233 -0.004,0.22234 -0.004,0.22233 c 0,0 0.0686,0.11166 0.22599,0.11491 0.17379,0.003 0.24255,-0.10524 0.24255,-0.10524 l 0.0734,-3.55734 0.005,-0.2344 0.003,-0.11714 c 8.1e-4,-0.0391 -2.4e-4,-0.0617 -0.0273,-0.0899 -0.027,-0.0282 -0.0484,-0.0289 -0.0875,-0.0297 l -0.11713,-0.003 -0.23427,-0.005 z"
           sodipodi:nodetypes="czcccccccccccccccccccccsccssssscc" />
        <path
           id="path91857"
           style="display:inline;opacity:0.99;mix-blend-mode:normal;fill:#07446b;fill-opacity:1;stroke:none;stroke-width:0.497905;stroke-miterlimit:4;stroke-dasharray:none;stroke-opacity:0.984314;paint-order:stroke fill markers;filter:url(#filter989);stop-color:#000000"
           d="m 188.45923,221.68302 c 0,0 0.15786,0.0467 0.14312,0.25547 -0.0147,0.20892 -0.15819,0.21321 -0.15819,0.21321 l -0.25938,-0.005 -0.25937,-0.005 -0.25938,-0.005 -0.25939,-0.005 -0.007,0.22229 -0.007,0.22227 -0.007,0.22228 -0.007,0.22229 -0.007,0.22227 -0.007,0.22229 -0.007,0.22227 -0.007,0.22228 -0.007,0.22228 -0.007,0.22229 -0.007,0.22228 -0.007,0.22227 -0.007,0.22227 -0.007,0.22229 -0.007,0.22228 -0.007,0.22228 c 0,0 -0.0709,0.10866 -0.22021,0.10558 -0.16497,-0.003 -0.22455,-0.11475 -0.22455,-0.11475 l 0.1143,-3.55651 0.008,-0.23433 0.003,-0.11712 c 8.6e-4,-0.039 0.003,-0.0616 0.0305,-0.0887 0.0271,-0.0271 0.0474,-0.0269 0.0845,-0.0262 l 0.1112,0.003 0.22238,0.004 z"
           sodipodi:nodetypes="czcccccccccccccccccccccsccssssscc" />
        <g
           id="g91863"
           style="stroke:#073a64;stroke-width:0.3;stroke-dasharray:none;stroke-opacity:1"
           transform="translate(-12.089886)">
          <rect
             style="fill:#b3bfbd;fill-opacity:1;stroke:#073a64;stroke-width:0.3;stroke-dasharray:none;stroke-opacity:1"
             id="rect91859"
             width="6.8246603"
             height="0.057482306"
             x="195.45581"
             y="227.16911" />
          <rect
             style="fill:#b3bfbd;fill-opacity:1;stroke:#073a64;stroke-width:0.3;stroke-dasharray:none;stroke-opacity:1"
             id="rect91861"
             width="6.8246603"
             height="0.057482306"
             x="195.45581"
             y="227.74352" />
        </g>
        <ellipse
           style="fill:#073e69;fill-opacity:1;stroke:none;stroke-width:0.1;stroke-dasharray:none;stroke-opacity:1"
           id="ellipse91865"
           cx="182.79959"
           cy="219.64229"
           rx="0.35015258"
           ry="0.51640356" />
        <ellipse
           style="fill:#073e69;fill-opacity:1;stroke:none;stroke-width:0.1;stroke-dasharray:none;stroke-opacity:1"
           id="ellipse91867"
           cx="182.79959"
           cy="221.33307"
           rx="0.35015258"
           ry="0.51640356" />
        <ellipse
           style="fill:#073e69;fill-opacity:1;stroke:none;stroke-width:0.1;stroke-dasharray:none;stroke-opacity:1"
           id="ellipse91869"
           cx="182.79959"
           cy="223.02383"
           rx="0.35015258"
           ry="0.51640356" />
        <ellipse
           style="fill:#073e69;fill-opacity:1;stroke:none;stroke-width:0.1;stroke-dasharray:none;stroke-opacity:1"
           id="ellipse91871"
           cx="190.75691"
           cy="219.72694"
           rx="0.35015258"
           ry="0.51640356" />
        <ellipse
           style="fill:#073e69;fill-opacity:1;stroke:none;stroke-width:0.1;stroke-dasharray:none;stroke-opacity:1"
           id="ellipse91873"
           cx="190.75691"
           cy="221.3895"
           rx="0.35015258"
           ry="0.51640356" />
        <ellipse
           style="fill:#073e69;fill-opacity:1;stroke:none;stroke-width:0.1;stroke-dasharray:none;stroke-opacity:1"
           id="ellipse91875"
           cx="190.75691"
           cy="223.05205"
           rx="0.35015258"
           ry="0.51640356" />
      </g>
      <g
         id="g3667"
         transform="matrix(0.7770049,0.20819784,-0.20819784,0.7770049,-90.404956,-205.64171)">
        <path
           id="path3643"
           style="fill:#00efd1;fill-opacity:1;stroke:#083763;stroke-width:0.4;stroke-dasharray:none;stroke-opacity:0.929412"
           d="m 181.97028,217.90081 v 13.6276 h 1.26711 a 3.9282424,3.733757 0 0 1 3.54087,-2.11667 3.9282424,3.733757 0 0 1 3.54035,2.11667 h 1.26762 v -13.6276 h -1.09399 a 3.9282424,3.733757 0 0 1 -3.50108,2.04484 3.9282424,3.733757 0 0 1 -3.50108,-2.04484 z" />
        <path
           id="path3645"
           style="display:inline;opacity:0.99;mix-blend-mode:normal;fill:#07446b;fill-opacity:1;stroke:none;stroke-width:0.511039;stroke-miterlimit:4;stroke-dasharray:none;stroke-opacity:0.984314;paint-order:stroke fill markers;filter:url(#filter989);stop-color:#000000"
           d="m 185.11778,221.61401 c 0,0 -0.16865,0.04 -0.16452,0.24912 0.004,0.20931 0.15484,0.21968 0.15484,0.21968 l 0.27326,0.006 0.27325,0.006 0.27324,0.006 0.27324,0.006 -0.004,0.22233 -0.004,0.22234 -0.004,0.22234 -0.004,0.22232 -0.004,0.22234 -0.004,0.22233 -0.004,0.22234 -0.004,0.22233 -0.004,0.22232 -0.004,0.22234 -0.004,0.22234 -0.004,0.22234 -0.004,0.22233 -0.004,0.22233 -0.004,0.22234 -0.004,0.22233 c 0,0 0.0686,0.11166 0.22599,0.11491 0.17379,0.003 0.24255,-0.10524 0.24255,-0.10524 l 0.0734,-3.55734 0.005,-0.2344 0.003,-0.11714 c 8.1e-4,-0.0391 -2.4e-4,-0.0617 -0.0273,-0.0899 -0.027,-0.0282 -0.0484,-0.0289 -0.0875,-0.0297 l -0.11713,-0.003 -0.23427,-0.005 z"
           sodipodi:nodetypes="czcccccccccccccccccccccsccssssscc" />
        <path
           id="path3647"
           style="display:inline;opacity:0.99;mix-blend-mode:normal;fill:#07446b;fill-opacity:1;stroke:none;stroke-width:0.497905;stroke-miterlimit:4;stroke-dasharray:none;stroke-opacity:0.984314;paint-order:stroke fill markers;filter:url(#filter989);stop-color:#000000"
           d="m 188.45923,221.68302 c 0,0 0.15786,0.0467 0.14312,0.25547 -0.0147,0.20892 -0.15819,0.21321 -0.15819,0.21321 l -0.25938,-0.005 -0.25937,-0.005 -0.25938,-0.005 -0.25939,-0.005 -0.007,0.22229 -0.007,0.22227 -0.007,0.22228 -0.007,0.22229 -0.007,0.22227 -0.007,0.22229 -0.007,0.22227 -0.007,0.22228 -0.007,0.22228 -0.007,0.22229 -0.007,0.22228 -0.007,0.22227 -0.007,0.22227 -0.007,0.22229 -0.007,0.22228 -0.007,0.22228 c 0,0 -0.0709,0.10866 -0.22021,0.10558 -0.16497,-0.003 -0.22455,-0.11475 -0.22455,-0.11475 l 0.1143,-3.55651 0.008,-0.23433 0.003,-0.11712 c 8.6e-4,-0.039 0.003,-0.0616 0.0305,-0.0887 0.0271,-0.0271 0.0474,-0.0269 0.0845,-0.0262 l 0.1112,0.003 0.22238,0.004 z"
           sodipodi:nodetypes="czcccccccccccccccccccccsccssssscc" />
        <g
           id="g3653"
           style="stroke:#073a64;stroke-width:0.3;stroke-dasharray:none;stroke-opacity:1"
           transform="translate(-12.089886)">
          <rect
             style="fill:#b3bfbd;fill-opacity:1;stroke:#073a64;stroke-width:0.3;stroke-dasharray:none;stroke-opacity:1"
             id="rect3649"
             width="6.8246603"
             height="0.057482306"
             x="195.45581"
             y="227.16911" />
          <rect
             style="fill:#b3bfbd;fill-opacity:1;stroke:#073a64;stroke-width:0.3;stroke-dasharray:none;stroke-opacity:1"
             id="rect3651"
             width="6.8246603"
             height="0.057482306"
             x="195.45581"
             y="227.74352" />
        </g>
        <ellipse
           style="fill:#073e69;fill-opacity:1;stroke:none;stroke-width:0.1;stroke-dasharray:none;stroke-opacity:1"
           id="ellipse3655"
           cx="182.79959"
           cy="219.64229"
           rx="0.35015258"
           ry="0.51640356" />
        <ellipse
           style="fill:#073e69;fill-opacity:1;stroke:none;stroke-width:0.1;stroke-dasharray:none;stroke-opacity:1"
           id="ellipse3657"
           cx="182.79959"
           cy="221.33307"
           rx="0.35015258"
           ry="0.51640356" />
        <ellipse
           style="fill:#073e69;fill-opacity:1;stroke:none;stroke-width:0.1;stroke-dasharray:none;stroke-opacity:1"
           id="ellipse3659"
           cx="182.79959"
           cy="223.02383"
           rx="0.35015258"
           ry="0.51640356" />
        <ellipse
           style="fill:#073e69;fill-opacity:1;stroke:none;stroke-width:0.1;stroke-dasharray:none;stroke-opacity:1"
           id="ellipse3661"
           cx="190.75691"
           cy="219.72694"
           rx="0.35015258"
           ry="0.51640356" />
        <ellipse
           style="fill:#073e69;fill-opacity:1;stroke:none;stroke-width:0.1;stroke-dasharray:none;stroke-opacity:1"
           id="ellipse3663"
           cx="190.75691"
           cy="221.3895"
           rx="0.35015258"
           ry="0.51640356" />
        <ellipse
           style="fill:#073e69;fill-opacity:1;stroke:none;stroke-width:0.1;stroke-dasharray:none;stroke-opacity:1"
           id="ellipse3665"
           cx="190.75691"
           cy="223.05205"
           rx="0.35015258"
           ry="0.51640356" />
      </g>
    </g>
  </g>
</svg>
