<?xml version="1.0" encoding="UTF-8" standalone="no"?>
<svg
   xmlns:dc="http://purl.org/dc/elements/1.1/"
   xmlns:cc="http://creativecommons.org/ns#"
   xmlns:rdf="http://www.w3.org/1999/02/22-rdf-syntax-ns#"
   xmlns:svg="http://www.w3.org/2000/svg"
   xmlns="http://www.w3.org/2000/svg"
   xmlns:xlink="http://www.w3.org/1999/xlink"
   xmlns:sodipodi="http://sodipodi.sourceforge.net/DTD/sodipodi-0.dtd"
   xmlns:inkscape="http://www.inkscape.org/namespaces/inkscape"
   width="200"
   height="270"
   viewBox="0 0 52.916664 71.437502"
   version="1.1"
   id="svg1469"
   inkscape:version="1.0.2 (1.0.2+r75+1)"
   sodipodi:docname="topacio_azul.svg">
  <defs
     id="defs1463">
    <linearGradient
       inkscape:collect="always"
       xlink:href="#linearGradient1339"
       id="linearGradient1347"
       x1="76.250809"
       y1="159.23947"
       x2="105.65126"
       y2="157.92157"
       gradientUnits="userSpaceOnUse"
       gradientTransform="matrix(0.26458333,0,0,0.26458333,-9.21524,-1.0301284)" />
    <linearGradient
       inkscape:collect="always"
       id="linearGradient1339">
      <stop
         style="stop-color:#009edf;stop-opacity:0.82352942"
         offset="0"
         id="stop1335" />
      <stop
         style="stop-color:#006eb5;stop-opacity:0.98823529"
         offset="1"
         id="stop1337" />
    </linearGradient>
    <radialGradient
       inkscape:collect="always"
       xlink:href="#linearGradient976"
       id="radialGradient1317"
       cx="136.56252"
       cy="32.990814"
       fx="136.56252"
       fy="32.990814"
       r="19.086842"
       gradientTransform="matrix(-0.10635397,-0.45159689,0.47277673,-0.11134196,25.843602,73.043163)"
       gradientUnits="userSpaceOnUse" />
    <linearGradient
       inkscape:collect="always"
       id="linearGradient976">
      <stop
         style="stop-color:#00c2ff;stop-opacity:1"
         offset="0"
         id="stop972" />
      <stop
         style="stop-color:#0066ad;stop-opacity:0.56922005"
         offset="1"
         id="stop974" />
    </linearGradient>
    <linearGradient
       inkscape:collect="always"
       xlink:href="#linearGradient976"
       id="linearGradient1309"
       x1="196.50114"
       y1="60.076687"
       x2="148.27551"
       y2="108.93336"
       gradientUnits="userSpaceOnUse"
       gradientTransform="matrix(0.26458333,0,0,0.26458333,-9.21524,-1.0301284)" />
    <linearGradient
       inkscape:collect="always"
       xlink:href="#linearGradient976"
       id="linearGradient1291"
       x1="71.412781"
       y1="211.4485"
       x2="85.707893"
       y2="211.4485"
       gradientUnits="userSpaceOnUse"
       gradientTransform="matrix(0.26458333,0,0,0.26458333,-9.21524,-1.0301284)" />
    <linearGradient
       inkscape:collect="always"
       xlink:href="#linearGradient1281"
       id="linearGradient1283"
       x1="85.342064"
       y1="218.20032"
       x2="124.811"
       y2="129.46417"
       gradientUnits="userSpaceOnUse"
       gradientTransform="matrix(0.26458333,0,0,0.26458333,-9.21524,-1.0301284)" />
    <linearGradient
       inkscape:collect="always"
       id="linearGradient1281">
      <stop
         style="stop-color:#0079c0;stop-opacity:1;"
         offset="0"
         id="stop1277" />
      <stop
         style="stop-color:#0079c0;stop-opacity:0;"
         offset="1"
         id="stop1279" />
    </linearGradient>
    <linearGradient
       inkscape:collect="always"
       xlink:href="#linearGradient976"
       id="linearGradient1275"
       x1="54.795094"
       y1="74.910759"
       x2="142.25529"
       y2="88.780228"
       gradientUnits="userSpaceOnUse"
       gradientTransform="matrix(0.26458333,0,0,0.26458333,-9.21524,-1.0301284)" />
    <linearGradient
       inkscape:collect="always"
       xlink:href="#linearGradient976"
       id="linearGradient1301"
       x1="225.76111"
       y1="129.75362"
       x2="161.68687"
       y2="153.95244"
       gradientUnits="userSpaceOnUse"
       gradientTransform="matrix(0.26458333,0,0,0.26458333,-9.21524,-1.0301284)" />
    <radialGradient
       inkscape:collect="always"
       xlink:href="#linearGradient976"
       id="radialGradient1267"
       cx="136.46747"
       cy="158.98128"
       fx="136.46747"
       fy="158.98128"
       r="39.712528"
       gradientTransform="matrix(0.75013517,-0.03970903,0.03583553,0.67696153,-81.17445,-61.171546)"
       gradientUnits="userSpaceOnUse" />
    <linearGradient
       inkscape:collect="always"
       xlink:href="#linearGradient1255"
       id="linearGradient1259"
       x1="174.11534"
       y1="65.095818"
       x2="239.72531"
       y2="153.30782"
       gradientUnits="userSpaceOnUse"
       gradientTransform="matrix(0.26458333,0,0,0.26458333,-9.21524,-1.0301284)" />
    <linearGradient
       inkscape:collect="always"
       id="linearGradient1255">
      <stop
         style="stop-color:#ffffff;stop-opacity:1;"
         offset="0"
         id="stop1251" />
      <stop
         style="stop-color:#ffffff;stop-opacity:0;"
         offset="1"
         id="stop1253" />
    </linearGradient>
    <linearGradient
       inkscape:collect="always"
       xlink:href="#linearGradient1339"
       id="linearGradient1333"
       x1="147.33884"
       y1="115.35369"
       x2="126.57124"
       y2="142.90428"
       gradientUnits="userSpaceOnUse"
       gradientTransform="matrix(0.26458333,0,0,0.26458333,-9.21524,-1.0301284)" />
    <linearGradient
       inkscape:collect="always"
       xlink:href="#linearGradient976"
       id="linearGradient1325"
       x1="125.24816"
       y1="103.27966"
       x2="148.47516"
       y2="133.58977"
       gradientUnits="userSpaceOnUse"
       gradientTransform="matrix(0.26458333,0,0,0.26458333,-9.21524,-1.0301284)" />
    <linearGradient
       inkscape:collect="always"
       xlink:href="#linearGradient1249"
       id="linearGradient1243"
       x1="13.177432"
       y1="85.804451"
       x2="136.44702"
       y2="162.61107"
       gradientUnits="userSpaceOnUse"
       gradientTransform="matrix(0.26458333,0,0,0.26458333,-9.214758,-1.0306022)" />
    <linearGradient
       inkscape:collect="always"
       id="linearGradient1249">
      <stop
         style="stop-color:#f8fdff;stop-opacity:1"
         offset="0"
         id="stop1245" />
      <stop
         style="stop-color:#ffffff;stop-opacity:0.2218203"
         offset="1"
         id="stop1247" />
    </linearGradient>
  </defs>
  <sodipodi:namedview
     id="base"
     pagecolor="#ffffff"
     bordercolor="#666666"
     borderopacity="1.0"
     inkscape:pageopacity="0.0"
     inkscape:pageshadow="2"
     inkscape:zoom="1.4542243"
     inkscape:cx="-16.820462"
     inkscape:cy="165.27764"
     inkscape:document-units="mm"
     inkscape:current-layer="layer1"
     inkscape:document-rotation="0"
     showgrid="false"
     units="px"
     inkscape:window-width="1360"
     inkscape:window-height="705"
     inkscape:window-x="0"
     inkscape:window-y="30"
     inkscape:window-maximized="1" />
  <metadata
     id="metadata1466">
    <rdf:RDF>
      <cc:Work
         rdf:about="">
        <dc:format>image/svg+xml</dc:format>
        <dc:type
           rdf:resource="http://purl.org/dc/dcmitype/StillImage" />
        <dc:title />
      </cc:Work>
    </rdf:RDF>
  </metadata>
  <g
     inkscape:label="Capa 1"
     inkscape:groupmode="layer"
     id="layer1">
    <path
       id="central"
       style="display:inline;opacity:0.99;mix-blend-mode:normal;fill:url(#radialGradient1267);fill-opacity:1;stroke:none;stroke-width:0.412721;stroke-miterlimit:4;stroke-dasharray:none;stroke-opacity:1;stop-color:#000000"
       d="m 28.084757,14.114969 c -0.04951,-0.0047 -0.09675,-0.0035 -0.143211,0.0035 -0.191465,0.02835 -0.269102,0.196241 -0.470069,1.016878 -0.840253,3.431155 -4.465426,10.183341 -10.248941,19.08906 l -0.838032,1.289595 0.611222,2.368834 c 0.82454,3.19483 2.017937,7.475619 2.121461,7.610133 0.04622,0.06005 0.08339,0.182629 0.08223,0.272719 -0.0051,0.4572 2.294668,7.652182 3.53577,11.061623 1.788165,4.912257 3.768241,9.067385 5.15702,10.821789 0.375848,0.474793 0.477173,0.39601 0.293963,-0.228179 -0.06716,-0.228798 -0.150051,-1.005374 -0.184322,-1.726083 -0.122889,-2.585823 0.485851,-6.226313 1.780217,-10.647066 1.107895,-3.78387 2.574885,-6.100734 5.467426,-8.635233 l 0.675638,-0.592034 0.736616,-7.22983 0.737306,-7.229834 -0.801031,-2.052254 C 33.806218,22.153446 31.25794,17.076258 29.49564,15.158654 28.861384,14.46851 28.431346,14.147642 28.084757,14.115053 Z m -0.13499,17.386267 h 0.289168 0.578329 2.699795 c 0,0 0.412888,0.112371 0.385787,0.656447 -0.02707,0.544081 -0.399489,0.563258 -0.399489,0.563258 h -0.67495 -0.674949 -0.674947 -0.674949 l -0.0062,0.578332 -0.0069,0.578329 -0.0069,0.578334 -0.0069,0.578332 -0.0062,0.579016 -0.0069,0.578332 -0.0069,0.578331 -0.0062,0.578332 -0.0069,0.578334 -0.0069,0.578332 -0.0069,0.579016 -0.0062,0.578332 -0.0069,0.578329 -0.0069,0.578334 -0.0069,0.578332 -0.0062,0.579016 c 0,0 -0.178689,0.286428 -0.56737,0.286428 -0.429205,0 -0.589976,-0.286428 -0.589976,-0.286428 l 0.106209,-9.255363 0.0075,-0.609851 0.0035,-0.304927 c 0.0011,-0.101642 0.005,-0.160419 0.07401,-0.232294 0.06901,-0.07183 0.122156,-0.07263 0.218583,-0.07263 z m -5.126186,0.01781 h 2.843694 0.609166 0.304927 c 0.101585,0 0.157036,7.93e-4 0.228868,0.07263 0.07186,0.07187 0.07606,0.130651 0.07606,0.232293 v 0.304927 0.609852 9.255363 c 0,0 -0.172776,0.286427 -0.624927,0.286427 -0.409448,0 -0.594091,-0.286427 -0.594091,-0.286427 V 41.415777 40.837448 40.258428 39.680099 39.101768 38.523434 37.9451 37.366085 36.787756 36.209422 35.631091 35.052757 34.474428 33.895414 33.317079 32.738748 h -0.711266 -0.710578 -0.711266 -0.710584 c 0,0 -0.392599,-0.01918 -0.414562,-0.563258 -0.02193,-0.544076 0.414562,-0.656447 0.414562,-0.656447 z"
       inkscape:label="central" />
    <path
       style="display:inline;opacity:0.99;mix-blend-mode:normal;fill:url(#linearGradient1347);fill-opacity:1;stroke:none;stroke-width:0.412721;stroke-miterlimit:4;stroke-dasharray:none;stroke-opacity:1;stop-color:#000000"
       d="M 9.1881578,53.977368 C 9.0973779,53.707384 5.2888282,27.55342 5.3337528,27.508494 c 0.024672,-0.02466 0.6061207,0.484859 1.2920782,1.132316 3.415496,3.223802 6.642666,5.633812 8.844492,6.604979 l 0.608567,0.268414 0.577124,2.279552 c 0.317425,1.253752 0.9158,3.496405 1.329717,4.983681 0.413927,1.487265 0.752591,2.756014 0.752591,2.81944 0,0.112226 -5.380663,6.261677 -5.68804,6.500749 -0.08476,0.06592 -0.977571,0.548052 -1.984033,1.071404 -1.277627,0.664355 -1.8444629,0.908325 -1.8780912,0.808339 z"
       id="path955" />
    <path
       style="display:inline;opacity:0.99;mix-blend-mode:normal;fill:url(#radialGradient1317);fill-opacity:1;stroke:none;stroke-width:0.583673;stroke-miterlimit:4;stroke-dasharray:none;stroke-opacity:1;stop-color:#000000"
       d="M 27.302347,13.579926 C 27.125982,13.356548 25.589895,10.663985 24.680507,8.9841628 23.541026,6.8793275 22.290044,3.893121 21.960132,2.4904214 L 21.866864,2.0938707 26.897453,1.9012758 C 29.66428,1.7953514 31.94519,1.730573 31.966145,1.7573207 c 0.02098,0.026771 -0.353775,1.8207247 -0.832731,3.9866197 l -0.870839,3.9379763 -0.987433,1.4670923 c -1.659642,2.465814 -1.804403,2.644197 -1.972795,2.430917 z"
       id="path957" />
    <path
       style="display:inline;opacity:0.99;mix-blend-mode:normal;fill:url(#linearGradient1309);fill-opacity:1;stroke:none;stroke-width:0.583673;stroke-miterlimit:4;stroke-dasharray:none;stroke-opacity:1;stop-color:#000000"
       d="m 36.841778,29.185296 c -1.89978,-4.970552 -4.494054,-10.495625 -6.005957,-12.790983 -0.871659,-1.323347 -2.174312,-2.619985 -2.632139,-2.619985 -0.25477,0 -0.07382,-0.345802 1.035789,-1.979426 l 1.344485,-1.9794359 0.840343,-3.8919395 c 0.46219,-2.1405718 0.893408,-3.873219 0.958265,-3.8503235 0.171837,0.060639 17.273577,20.0585999 17.273577,20.1988919 0,0.123021 -11.571491,8.435891 -11.939095,8.576954 -0.147616,0.05662 -0.403955,-0.430615 -0.875268,-1.663753 z"
       id="path959" />
    <path
       style="display:inline;opacity:0.99;mix-blend-mode:normal;fill:url(#linearGradient1291);fill-opacity:1;stroke:none;stroke-width:0.583673;stroke-miterlimit:4;stroke-dasharray:none;stroke-opacity:1;stop-color:#000000"
       d="m 11.547003,55.949437 c -1.042332,-0.772986 -1.8826677,-1.474915 -1.8674073,-1.559854 0.023865,-0.132752 3.3651743,-2.002562 3.3829933,-1.893125 0.03132,0.192407 0.413162,4.831024 0.398648,4.842856 -0.01052,0.0085 -0.871896,-0.616894 -1.914234,-1.389877 z"
       id="path961" />
    <path
       style="display:inline;opacity:0.99;mix-blend-mode:normal;fill:url(#linearGradient1283);fill-opacity:1;stroke:none;stroke-width:0.583673;stroke-miterlimit:4;stroke-dasharray:none;stroke-opacity:1;stop-color:#000000"
       d="m 20.623185,62.638228 c -3.43994,-2.545485 -6.379312,-4.713081 -6.531934,-4.816883 -0.232592,-0.158181 -0.313808,-0.621297 -0.501943,-2.862151 l -0.224461,-2.673427 2.714835,-3.079109 c 1.493161,-1.693511 2.739862,-3.07911 2.770453,-3.07911 0.0306,0 0.238998,0.608065 0.463124,1.351275 1.516684,5.029306 3.309461,10.21729 4.629468,13.396849 0.668184,1.609484 2.201283,4.719232 2.773301,5.625367 0.417235,0.660942 0.463103,0.788971 0.277416,0.774427 -0.0637,-0.0052 -2.930316,-2.091743 -6.370259,-4.637238 z"
       id="path963" />
    <path
       style="display:inline;opacity:0.99;mix-blend-mode:normal;fill:url(#linearGradient1275);fill-opacity:1;stroke:none;stroke-width:0.583673;stroke-miterlimit:4;stroke-dasharray:none;stroke-opacity:1;stop-color:#000000"
       d="M 14.759995,34.530154 C 12.463766,33.278593 9.6507341,31.094696 6.8353902,28.377883 L 5.2826282,26.879471 13.446497,14.649345 21.610374,2.4192225 21.809291,3.1964723 c 0.460311,1.7986608 2.172001,5.3954624 4.29901,9.0335507 1.347806,2.305318 1.3315,2.131661 0.427644,4.555704 -1.288301,3.455089 -4.727977,9.606577 -9.520266,17.025975 -0.480043,0.743199 -0.924519,1.350293 -0.987719,1.349095 -0.0632,-0.0011 -0.633786,-0.28498 -1.267965,-0.630643 z"
       id="path965" />
    <path
       style="display:inline;opacity:0.99;mix-blend-mode:normal;fill:url(#linearGradient1301);fill-opacity:1;stroke:none;stroke-width:0.583673;stroke-miterlimit:4;stroke-dasharray:none;stroke-opacity:1;stop-color:#000000"
       d="m 42.542099,50.947613 -6.405155,-5.128926 0.729498,-7.103814 c 0.401225,-3.907094 0.784908,-7.189036 0.852625,-7.29321 0.06772,-0.104175 2.798638,-2.09713 6.068706,-4.428808 l 5.945581,-4.239412 0.04403,1.108553 c 0.0483,1.21617 -0.700995,32.08538 -0.780774,32.165154 -0.02714,0.02714 -2.931692,-2.258634 -6.454532,-5.079537 z"
       id="path967" />
    <path
       style="display:inline;opacity:0.99;mix-blend-mode:normal;fill:#0079c1;fill-opacity:0.984314;stroke:none;stroke-width:0.412721;stroke-miterlimit:4;stroke-dasharray:none;stroke-opacity:1;stop-color:#000000"
       d="m 28.784824,68.412592 c -1.163222,-2.280107 -0.524357,-8.152325 1.58873,-14.603012 0.942157,-2.876148 2.926104,-5.638028 5.425451,-7.552823 0.1686,-0.129172 0.899239,0.422648 6.640906,5.015545 5.234043,4.186836 6.424367,5.186341 6.307886,5.29667 -0.109315,0.10355 -14.983978,9.357386 -19.061048,11.858273 l -0.68126,0.417883 z"
       id="path969" />
    <path
       id="brillo1"
       style="display:inline;opacity:0.354053;mix-blend-mode:normal;fill:url(#linearGradient1259);fill-opacity:1;stroke:none;stroke-width:1.38199;stroke-miterlimit:4;stroke-dasharray:none;stroke-opacity:1;stop-color:#000000"
       d="m 18.332816,7.3293941 -2.579829,3.8643669 8.578521,10.328853 c 0.91721,-1.74733 1.623018,-3.246979 2.092232,-4.45139 z m 8.374285,10.0828189 c -0.50569,1.257961 -1.213951,2.75157 -2.099696,4.442734 l 12.256256,14.757251 0.535379,-5.251614 -0.791265,-2.027132 z m 10.468888,12.605012 c 0.265901,0.619707 0.433062,0.873292 0.541057,0.831869 0.0118,-0.0046 0.06562,-0.03969 0.09943,-0.0603 z m 0.917871,1.105083 c -0.213693,0.162562 -0.361032,0.278437 -0.374735,0.29949 -0.05633,0.08668 -0.33401,2.413992 -0.656005,5.430467 l 12.088151,14.554517 c 0.05287,-1.899484 0.113424,-4.234609 0.17707,-6.757413 z"
       sodipodi:nodetypes="ccccccccccccccccccccc"
       inkscape:label="#brillo1" />
    <path
       id="t_izquierda"
       style="opacity:0.99;mix-blend-mode:normal;fill:url(#linearGradient1333);fill-opacity:1.0;stroke:none;stroke-width:1.32932;stroke-miterlimit:4;stroke-dasharray:none;stroke-opacity:0.984314;paint-order:stroke fill markers;stop-color:#000000"
       d="m 22.823322,31.519318 c 0,0 -0.43648,0.112651 -0.414512,0.65673 0.02193,0.544078 0.414512,0.562972 0.414512,0.562972 h 0.710922 0.710922 0.710925 0.710925 v 0.578456 0.578464 0.578459 0.578458 0.578464 0.578459 0.578463 0.578459 0.578458 0.578462 0.578461 0.578456 0.578463 0.578459 0.578464 0.578458 c 0,0 0.184412,0.286592 0.593863,0.286592 0.452151,0 0.625155,-0.286592 0.625155,-0.286592 V 32.73902 32.129166 31.824242 c 0,-0.10164 -0.0039,-0.160419 -0.07572,-0.232291 -0.07183,-0.07183 -0.127453,-0.07263 -0.229039,-0.07263 h -0.304753 -0.60951 z"
       sodipodi:nodetypes="czcccccccccccccccccccccsccssssscc"
       inkscape:label="t_izquierda" />
    <path
       id="path979"
       style="opacity:0.99;mix-blend-mode:normal;fill:#0179c0;fill-opacity:0.988235;stroke:none;stroke-width:1.29515;stroke-miterlimit:4;stroke-dasharray:none;stroke-opacity:0.984314;paint-order:stroke fill markers;stop-color:#000000"
       d="m 31.516985,31.501236 c 0,0 0.413036,0.112654 0.385929,0.65673 -0.02707,0.544081 -0.399952,0.562975 -0.399952,0.562975 H 30.828113 30.153265 29.47841 28.803562 l -0.0067,0.578459 -0.0067,0.578461 -0.0067,0.578461 -0.0067,0.578459 -0.0067,0.578461 -0.0067,0.578459 -0.0067,0.578463 -0.0067,0.578459 -0.0067,0.578458 -0.0067,0.578462 -0.0067,0.578461 -0.0067,0.578458 -0.0067,0.578461 -0.0067,0.578459 -0.0067,0.578464 -0.0067,0.578458 c 0,0 -0.178348,0.286589 -0.567024,0.286589 -0.429209,0 -0.59014,-0.286589 -0.59014,-0.286589 l 0.106408,-9.255363 0.007,-0.609851 0.0035,-0.304927 c 0.0011,-0.101642 0.0055,-0.160419 0.07455,-0.232294 0.06901,-0.07183 0.12182,-0.07263 0.218247,-0.07263 h 0.289293 0.57858 z"
       sodipodi:nodetypes="czcccccccccccccccccccccsccssssscc" />
    <path
       id="t_derecha"
       style="opacity:0.99;mix-blend-mode:normal;fill:url(#linearGradient1325);fill-opacity:1;stroke:none;stroke-width:1.29515;stroke-miterlimit:4;stroke-dasharray:none;stroke-opacity:0.984314;paint-order:stroke fill markers;stop-color:#000000"
       d="m 31.516985,31.501236 c 0,0 0.413036,0.112654 0.385929,0.65673 -0.02707,0.544081 -0.399952,0.562975 -0.399952,0.562975 H 30.828113 30.153265 29.47841 28.803562 l -0.0067,0.578459 -0.0067,0.578461 -0.0067,0.578461 -0.0067,0.578459 -0.0067,0.578461 -0.0067,0.578459 -0.0067,0.578463 -0.0067,0.578459 -0.0067,0.578458 -0.0067,0.578462 -0.0067,0.578461 -0.0067,0.578458 -0.0067,0.578461 -0.0067,0.578459 -0.0067,0.578464 -0.0067,0.578458 c 0,0 -0.178348,0.286589 -0.567024,0.286589 -0.429209,0 -0.59014,-0.286589 -0.59014,-0.286589 l 0.106408,-9.255363 0.007,-0.609851 0.0035,-0.304927 c 0.0011,-0.101642 0.0055,-0.160419 0.07455,-0.232294 0.06901,-0.07183 0.12182,-0.07263 0.218247,-0.07263 h 0.289293 0.57858 z"
       sodipodi:nodetypes="czcccccccccccccccccccccsccssssscc"
       inkscape:label="t_derecha" />
    <path
       id="brillo"
       style="opacity:0.514739;mix-blend-mode:normal;fill:url(#linearGradient1243);fill-opacity:1;fill-rule:evenodd;stroke-width:0.249767;stop-color:#000000"
       d="m 12.396326,16.222608 -7.113261,10.656198 1.552877,1.498616 c 2.815345,2.716813 5.628352,4.900517 7.92458,6.152078 0.63418,0.345663 1.20494,0.629912 1.26814,0.630971 0.0632,0.0013 0.507494,-0.606073 0.987537,-1.349272 1.525366,-2.361565 2.895143,-4.574598 4.120677,-6.633189 z M 5.334225,27.508223 c -0.01492,0.01492 0.441482,3.210767 0.998905,7.07812 l 10.541992,13.214181 c 0.998984,-1.151647 1.863452,-2.160778 1.863452,-2.203998 0,-0.06343 -0.338481,-1.332201 -0.752409,-2.819466 -0.413917,-1.487276 -1.012209,-3.729924 -1.329634,-4.983676 L 16.079305,35.513936 15.470557,35.245219 C 13.268731,34.274053 10.041631,31.864257 6.626136,28.640455 5.940178,27.992998 5.358897,27.483564 5.334225,27.508223 Z m 16.076537,0.01344 c -1.23291,2.064491 -2.629132,4.302239 -4.187858,6.702433 l -0.837675,1.289328 0.610816,2.368849 c 0.824541,3.19483 2.018309,7.475873 2.121833,7.610387 0.04622,0.06006 0.08333,0.182243 0.08217,0.272333 -0.0039,0.347245 1.320557,4.575699 2.502173,8.085812 l 6.514332,8.16591 c 0.276212,-2.012842 0.799759,-4.353293 1.565794,-6.969599 1.107895,-3.783869 2.575343,-6.100632 5.467884,-8.635132 l 0.675413,-0.591695 0.0093,-0.09302 -7.176823,-8.995833 -5.29e-4,0.03824 -0.0062,0.578257 -0.0062,0.491445 -0.0011,0.0801 v 0.0072 l -0.0067,0.57826 -0.0067,0.578776 -0.0062,0.57826 -0.0067,0.57826 -0.0062,0.491442 -0.0011,0.0801 v 0.0072 l -0.0067,0.578257 v 0.0062 l -0.0062,0.572574 c 0,0 -0.01127,0.01759 -0.03411,0.04444 -0.06774,0.08017 -0.240548,0.241845 -0.533302,0.241845 -0.42921,0 -0.590142,-0.286287 -0.590142,-0.286287 l 0.077,-6.675043 -0.730187,-0.915192 v 7.607806 l -5.29e-4,5.29e-4 c 0,0 -0.07333,0.118046 -0.244946,0.202573 -0.02839,0.014 -0.05799,0.02733 -0.09198,0.03876 -0.07982,0.02684 -0.175318,0.04496 -0.288356,0.04496 -0.409451,0 -0.593762,-0.286287 -0.593762,-0.286287 v -0.578776 -0.57826 -0.578776 -0.578258 -0.57826 -0.578776 -0.57826 -0.578776 -0.578257 -0.578261 -0.578776 -0.57826 -0.578776 -0.578257 -0.57826 -0.45992 l -0.09457,-0.118856 h -0.615931 -0.711068 -0.711067 -0.711068 c 0,0 -0.392509,-0.01868 -0.414443,-0.562756 -0.02196,-0.544078 0.414443,-0.656809 0.414443,-0.656809 l 5.29e-4,-5.3e-4 h 1.775084 z m -2.56005,18.605585 c -0.02259,0 -0.800936,0.86501 -1.760099,1.943031 l 4.008542,5.024501 c -0.607568,-1.818086 -1.216057,-3.728185 -1.785422,-5.616193 -0.224126,-0.743209 -0.432416,-1.351338 -0.463021,-1.351339 z m 16.985009,0.115236 c -0.01479,0.0016 -0.02659,0.0066 -0.03617,0.01394 -2.499346,1.914795 -4.483351,4.676362 -5.425508,7.55251 -0.999771,3.052035 -1.664883,5.969032 -1.969905,8.442894 l 3.723288,4.6669 c 3.908642,-2.415738 10.138195,-6.286595 13.848765,-8.60516 L 36.824808,46.842444 c -2.33e-4,-1.72e-4 -2.65e-4,-2.65e-4 -5.29e-4,-5.29e-4 -0.636617,-0.471575 -0.885085,-0.61127 -0.988571,-0.599448 z"
       inkscape:label="#brillo" />
  </g>
</svg>
